<?xml version="1.0" encoding="UTF-8" standalone="no"?>
<svg width="1200" height="630" viewBox="0 0 1200 630" fill="none" xmlns="http://www.w3.org/2000/svg">
  <!-- Background -->
  <rect width="1200" height="630" fill="white"/>
  
  <!-- Synthara Logo -->
  <g transform="translate(600, 315) scale(1.2)">
    <!-- S -->
    <path d="M-200 -50 C-180 -80, -140 -80, -120 -50 C-100 -20, -140 -10, -160 0 C-180 10, -140 20, -120 50 C-100 80, -140 80, -160 50" stroke="black" stroke-width="12" fill="none"/>
    <!-- Y -->
    <path d="M-80 -80 L-40 0 L0 -80 M-40 0 L-40 80" stroke="black" stroke-width="12" fill="none"/>
    <!-- N -->
    <path d="M20 -80 L20 80 M20 -80 L80 80 M80 -80 L80 80" stroke="black" stroke-width="12" fill="none"/>
    <!-- T -->
    <path d="M100 -80 L180 -80 M140 -80 L140 80" stroke="black" stroke-width="12" fill="none"/>
    <!-- H -->
    <path d="M-200 120 L-200 280 M-140 120 L-140 280 M-200 200 L-140 200" stroke="black" stroke-width="12" fill="none"/>
    <!-- A -->
    <path d="M-120 280 L-80 120 L-40 280 M-100 220 L-60 220" stroke="black" stroke-width="12" fill="none"/>
    <!-- R -->
    <path d="M-20 120 L-20 280 M-20 120 L40 120 C60 120, 80 140, 80 160 C80 180, 60 200, 40 200 L-20 200 M40 200 L80 280" stroke="black" stroke-width="12" fill="none"/>
    <!-- A -->
    <path d="M100 280 L140 120 L180 280 M120 220 L160 220" stroke="black" stroke-width="12" fill="none"/>
  </g>
  
  <!-- Tagline -->
  <text x="600" y="520" font-family="Arial, sans-serif" font-size="24" font-weight="normal" text-anchor="middle" fill="black">Clean, harmonious visual experiences with no noise or redundancy</text>
</svg>
